<svg xmlns="http://www.w3.org/2000/svg" xmlns:xlink="http://www.w3.org/1999/xlink" xml:space="preserve" id="Layer_2" x="0" y="0" style="enable-background:new 0 0 80.3 80.3" version="1.1" viewBox="0 0 80.3 80.3"><style>.st5{fill:#ed6b5a}</style><circle cx="40.2" cy="40.2" r="40.2" class="st5"/><defs><circle id="SVGID_5_" cx="40.8" cy="40.2" r="35.8"/></defs><clipPath id="SVGID_2_"><use xlink:href="#SVGID_5_" style="overflow:visible"/></clipPath><g style="clip-path:url(#SVGID_2_)"><path d="M20.2 94.2c-.7 0-1.2-.5-1.2-1.2V14.7c0-.7.5-1.2 1.2-1.2h41.3c.7 0 1.2.5 1.2 1.2V93c0 .7-.5 1.2-1.2 1.2H20.2z" style="fill:#0c2c48"/><path d="M36.9 16.6h7.8v1.9h-7.8z" style="fill:#babfc5"/><path d="M21.6 21.3H60v65.6H21.6z" style="fill:#fff"/><path d="M21.6 62.6H60v24.3H21.6zm0-41.3H60v10H21.6z" style="fill:#2384ab"/><path d="M23.9 24.1h4V27h-4z" style="fill:#55ab99"/><path d="M28.9 24.1h4V27h-4z" class="st5"/><path d="M34.1 24.1h4V27h-4z" style="fill:#f1cc4b"/></g><defs><circle id="SVGID_7_" cx="40.2" cy="40.2" r="40.2"/></defs><clipPath id="SVGID_4_"><use xlink:href="#SVGID_7_" style="overflow:visible"/></clipPath><path d="M21.3 75.1 2.2 65.2l10.6-20.6c.8-1.2 2.4-1.7 3.7-1 1.1.6 1.7 1.7 1.5 2.9l1-1.9c.7-1.4 2.5-2 3.9-1.2 1.1.6 1.7 1.7 1.5 2.9l.5-1c.7-1.4 2.5-2 3.9-1.2 1.1.6 1.7 1.7 1.5 2.9l5.8-11.2c.7-1.4 2.5-2 3.9-1.2 1.4.7 2 2.5 1.2 3.9L29.5 61.2l6.3-2.8c1.4-.6 3.1 0 3.8 1.5.6 1.4 0 3.2-1.5 3.8L24 70l-2.7 5.1z" style="clip-path:url(#SVGID_4_);fill:#f6a09c"/></svg>